<?xml version="1.0" encoding="utf-8"?>
<!-- Generator: Adobe Illustrator 26.1.0, SVG Export Plug-In . SVG Version: 6.00 Build 0)  -->
<svg version="1.1" id="a" xmlns="http://www.w3.org/2000/svg" xmlns:xlink="http://www.w3.org/1999/xlink" x="0px" y="0px"
	 viewBox="0 0 313.7 100.4" style="enable-background:new 0 0 313.7 100.4;" xml:space="preserve">
<style type="text/css">
	.st0{fill:#FC4466;}
	.st1{fill:#192345;stroke:#000000;stroke-miterlimit:10;}
</style>
<path class="st0" d="M29.9,65.3c-0.8,0-1.3,0-1.8,0c-6.9,0-13.8,0-20.6,0c-2.9,0-5.2-1-6.6-3.6c-1.4-2.6-1-5.2,0.7-7.6
	c11.3-16.8,22.7-33.6,34-50.4c1.9-2.8,4.4-4.2,7.7-3.7c3.1,0.5,5.3,2.4,6,5.4c0.4,1.6,0.2,3.3,0,5c-0.7,7.4-1.5,14.9-2.3,22.3
	c0,0.2,0,0.5,0,0.8c0.5,0,1,0.1,1.5,0.1c6.8,0,13.7,0,20.5,0c3,0,5.3,1,6.6,3.7c1.4,2.6,1.1,5.2-0.6,7.6
	c-11.7,17.3-23.4,34.5-35,51.8c-2.8,4.1-7.6,4.7-10.8,1.4c-1.4-1.5-2-3.3-1.8-5.4c0.7-7.5,1.4-15.1,2.1-22.6
	C29.6,68.7,29.8,67.2,29.9,65.3L29.9,65.3z"/>
<g>
	<path class="st1" d="M134.9,83.6v-7.3l30.3-37.9c2.1-2.7,4.2-5,6.1-7h-33v-7h42.4v7l-33.2,41l-3.6,4.2h37.8v7L134.9,83.6
		L134.9,83.6z"/>
	<path class="st1" d="M218.5,69.8l7.5,0.9c-1.2,4.4-3.4,7.8-6.6,10.2c-3.2,2.4-7.3,3.6-12.3,3.6c-6.3,0-11.2-1.9-14.9-5.8
		s-5.5-9.3-5.5-16.2s1.9-12.8,5.6-16.8s8.5-6,14.4-6s10.4,2,14,5.8s5.4,9.4,5.4,16.5c0,0.4,0,1.1,0,1.9h-31.9
		c0.3,4.7,1.6,8.3,4,10.8s5.4,3.8,9,3.8c2.7,0,4.9-0.7,6.8-2.1S217.4,72.9,218.5,69.8L218.5,69.8z M194.7,58.1h23.9
		c-0.3-3.6-1.2-6.3-2.7-8.1c-2.3-2.8-5.3-4.2-9-4.2c-3.3,0-6.1,1.1-8.4,3.3S194.9,54.4,194.7,58.1L194.7,58.1z"/>
	<path class="st1" d="M263.2,83.6v-6.3c-3.3,4.8-7.9,7.3-13.6,7.3c-2.5,0-4.9-0.5-7.1-1.4c-2.2-1-3.8-2.2-4.9-3.7
		c-1.1-1.5-1.8-3.3-2.2-5.4c-0.3-1.4-0.4-3.7-0.4-6.8V40.8h7.3v23.8c0,3.8,0.1,6.3,0.4,7.7c0.5,1.9,1.4,3.4,2.9,4.5
		c1.5,1.1,3.3,1.6,5.5,1.6s4.2-0.6,6.1-1.7c1.9-1.1,3.3-2.6,4-4.6c0.8-1.9,1.2-4.7,1.2-8.4v-23h7.3v42.8L263.2,83.6L263.2,83.6z"/>
	<path class="st1" d="M278.2,70.8l7.2-1.1c0.4,2.9,1.5,5.1,3.4,6.6c1.9,1.5,4.4,2.3,7.7,2.3s5.8-0.7,7.4-2s2.4-2.9,2.4-4.8
		c0-1.6-0.7-2.9-2.1-3.9c-1-0.7-3.5-1.5-7.4-2.5c-5.3-1.3-9-2.5-11.1-3.5s-3.6-2.3-4.7-4.1c-1.1-1.7-1.6-3.7-1.6-5.8
		c0-1.9,0.4-3.7,1.3-5.3c0.9-1.6,2.1-3,3.6-4c1.1-0.8,2.7-1.5,4.6-2.1c2-0.6,4-0.9,6.3-0.9c3.4,0,6.3,0.5,8.9,1.5s4.4,2.3,5.6,3.9
		s2,3.9,2.5,6.6l-7.1,1c-0.3-2.2-1.2-3.9-2.8-5.2c-1.5-1.2-3.7-1.9-6.5-1.9c-3.3,0-5.7,0.5-7.1,1.7c-1.4,1.1-2.1,2.4-2.1,3.9
		c0,0.9,0.3,1.8,0.9,2.5c0.6,0.8,1.5,1.4,2.8,1.9c0.7,0.3,2.9,0.9,6.4,1.9c5.1,1.4,8.7,2.5,10.8,3.4c2,0.9,3.6,2.1,4.8,3.8
		c1.2,1.7,1.7,3.7,1.7,6.2s-0.7,4.7-2.1,6.8s-3.5,3.8-6.1,5s-5.7,1.8-9,1.8c-5.6,0-9.8-1.2-12.7-3.5C280.8,78.8,279,75.4,278.2,70.8
		L278.2,70.8z"/>
</g>
</svg>
